# xmcd
#
# Track frame offsets: 
#        150
#        11109
#        25509
#        42096
#        62837
#        76404
#        93316
#        103493
#        119626
#        137667
#        152704
#        174480
#        191016
#        209415
#        231307
#
# Disc length: 3355 seconds
#
# Revision: 0
# Processed by: cddbd v1.5.2PL0 Copyright (c) Steve Scherf et al.
# Submitted via: ExactAudioCopy v0.95b4
#
DISCID=ce0d190f
DTITLE=Various Artist -  Blues Music One Stop Series, Vol 10, Disk 1
DYEAR=2006
DGENRE=Blues
TTITLE0=Sammy Terry and Brownie McGhee - Done Done
TTITLE1=Sammy Terry - One Monkey Don't Stop No Show
TTITLE2=Brownie McGhee - The Killin' Floor
TTITLE3=Brownie McGhee - Jump, Little Children
TTITLE4=John Lee Hooker - I Want To Talk About You
TTITLE5=John Lee Hooker - I Believe I'll Go Back Home
TTITLE6=John Lee Hooker - Bundle Up And Go
TTITLE7=John Lee Hooker - Black Snake
TTITLE8=John Lee Hooker - I'm Prison Bound
TTITLE9=Roosevelt Sykes - Hangover
TTITLE10=Albert King - Drivin' Wheel
TTITLE11=Lightnin' Hopkins - Black Cadillac
TTITLE12=Lightnin' Hopkins - Katie Mae
TTITLE13=Lightnen' Hopkins - I'm A Crawling Black Snake
TTITLE14=Lightnin' Hopkins - Automobile Blues
EXTD=
EXTT0=
EXTT1=
EXTT2=
EXTT3=
EXTT4=
EXTT5=
EXTT6=
EXTT7=
EXTT8=
EXTT9=
EXTT10=
EXTT11=
EXTT12=
EXTT13=
EXTT14=
PLAYORDER=
